<?xml version="1.0" encoding="UTF-8" standalone="no"?>
<svg xmlns="http://www.w3.org/2000/svg" xml:space="preserve" height="375.84pt" width="511.95pt" version="1.1" preserveAspectRatio="xMidYMid" xmlns:xlink="http://www.w3.org/1999/xlink" viewBox="-8 67.93648 511.9498 375.84172">
  <g transform="matrix(1 0 0 -1 0 819)">
    <g stroke-linejoin="round" baseline-shift="0" fill-rule="evenodd" stroke="#000" stroke-linecap="round" stroke-miterlimit="3" fill="none">
      <g transform="matrix(.75 0 0 .75 0 819.35)">
        <g font-size="10" font-family="ArialUnicode" transform="scale(.95975 -.95958)">
          <path stroke="none" d="m0 438c0-5 0-5 5-5h651c5 0 5 0 5 5v163c0 5 0 5-5 5h-651c-5 0-5 0-5-5v-163c0-5 0-5 5-5h651c5 0 5 0 5 5v163c0 5 0 5-5 5h-651c-5 0-5 0-5-5v-163" fill="#FFC0CB"/>
          <path d="m0 438c0-5 0-5 5-5h651c5 0 5 0 5 5v163c0 5 0 5-5 5h-651c-5 0-5 0-5-5v-163"/>
          <path stroke="none" d="m347 483c0-5 0-5 5-5h83c5 0 5 0 5 5v24c0 5 0 5-5 5h-83c-5 0-5 0-5-5v-24" fill="#DFDFDF"/>
          <path stroke="none" d="m344 480c0-5 0-5 5-5h83c5 0 5 0 5 5v24c0 5 0 5-5 5h-83c-5 0-5 0-5-5v-24" fill="#fff"/>
          <path d="m344 480c0-5 0-5 5-5h83c5 0 5 0 5 5v24c0 5 0 5-5 5h-83c-5 0-5 0-5-5v-24c0-5 0-5 5-5h83c5 0 5 0 5 5v24c0 5 0 5-5 5h-83c-5 0-5 0-5-5v-24"/>
          <rect y="475" x="344" height="34" width="93"/>
          <text stroke="none" font-weight="bold" transform="translate(363 484)" fill="#000000">
            <tspan y="9" x="0" dx="0 ">TrafficArea</tspan>
          </text>
          <path stroke="none" d="m20 449c0-5 0-5 5-5h93c5 0 5 0 5 5v19c0 5 0 5-5 5h-93c-5 0-5 0-5-5v-19" fill="#DFDFDF"/>
          <path stroke="none" d="m17 446c0-5 0-5 5-5h93c5 0 5 0 5 5v19c0 5 0 5-5 5h-93c-5 0-5 0-5-5v-19" fill="#fff"/>
          <path d="m17 446c0-5 0-5 5-5h93c5 0 5 0 5 5v19c0 5 0 5-5 5h-93c-5 0-5 0-5-5v-19c0-5 0-5 5-5h93c5 0 5 0 5 5v19c0 5 0 5-5 5h-93c-5 0-5 0-5-5v-19"/>
          <rect y="441" x="17" height="29" width="103"/>
          <text font-style="italic" stroke="none" font-weight="bold" transform="translate(19 450)" fill="#000000">
            <tspan y="9" x="0" dx="0 ">OverigeConstructie</tspan>
          </text>
          <path stroke="none" d="m571 470c0-5 0-5 5-5h74c5 0 5 0 5 5v18c0 5 0 5-5 5h-74c-5 0-5 0-5-5v-18" fill="#DFDFDF"/>
          <path stroke="none" d="m568 467c0-5 0-5 5-5h74c5 0 5 0 5 5v18c0 5 0 5-5 5h-74c-5 0-5 0-5-5v-18" fill="#fff"/>
          <path d="m568 467c0-5 0-5 5-5h74c5 0 5 0 5 5v18c0 5 0 5-5 5h-74c-5 0-5 0-5-5v-18c0-5 0-5 5-5h74c5 0 5 0 5 5v18c0 5 0 5-5 5h-74c-5 0-5 0-5-5v-18"/>
          <rect y="462" x="568" height="28" width="84"/>
          <text stroke="none" font-weight="bold" transform="translate(590 471)" fill="#000000">
            <tspan y="9" x="0" dx="0 ">Railway</tspan>
          </text>
          <path stroke="none" d="m146 483c0-5 0-5 5-5h76c5 0 5 0 5 5v28c0 5 0 5-5 5h-76c-5 0-5 0-5-5v-28" fill="#DFDFDF"/>
          <path stroke="none" d="m143 480c0-5 0-5 5-5h76c5 0 5 0 5 5v28c0 5 0 5-5 5h-76c-5 0-5 0-5-5v-28" fill="#fff"/>
          <path d="m143 480c0-5 0-5 5-5h76c5 0 5 0 5 5v28c0 5 0 5-5 5h-76c-5 0-5 0-5-5v-28c0-5 0-5 5-5h76c5 0 5 0 5 5v28c0 5 0 5-5 5h-76c-5 0-5 0-5-5v-28"/>
          <rect y="475" x="143" height="38" width="86"/>
          <text stroke="none" font-weight="bold" transform="translate(155 484)" fill="#000000">
            <tspan y="9" x="0" dx="0 ">BuildingPart</tspan>
          </text>
          <path stroke="none" d="m516 114c0-5 0-5 5-5h127c5 0 5 0 5 5v33c0 5 0 5-5 5h-127c-5 0-5 0-5-5v-33" fill="#DFDFDF"/>
          <path stroke="none" d="m513 111c0-5 0-5 5-5h127c5 0 5 0 5 5v33c0 5 0 5-5 5h-127c-5 0-5 0-5-5v-33" fill="#fff"/>
          <path d="m513 111c0-5 0-5 5-5h127c5 0 5 0 5 5v33c0 5 0 5-5 5h-127c-5 0-5 0-5-5v-33c0-5 0-5 5-5h127c5 0 5 0 5 5v33c0 5 0 5-5 5h-127c-5 0-5 0-5-5v-33"/>
          <rect y="106" x="513" height="43" width="137"/>
          <text font-style="italic" stroke="none" font-weight="bold" transform="translate(552 115)" fill="#000000">
            <tspan y="9" x="0" dx="0 ">_CityObject</tspan>
          </text>
          <path stroke="none" d="m450 509c0-5 0-5 5-5h122c5 0 5 0 5 5v27c0 5 0 5-5 5h-122c-5 0-5 0-5-5v-27" fill="#DFDFDF"/>
          <path stroke="none" d="m447 506c0-5 0-5 5-5h122c5 0 5 0 5 5v27c0 5 0 5-5 5h-122c-5 0-5 0-5-5v-27" fill="#fff"/>
          <path d="m447 506c0-5 0-5 5-5h122c5 0 5 0 5 5v27c0 5 0 5-5 5h-122c-5 0-5 0-5-5v-27c0-5 0-5 5-5h122c5 0 5 0 5 5v27c0 5 0 5-5 5h-122c-5 0-5 0-5-5v-27"/>
          <rect y="501" x="447" height="37" width="132"/>
          <text stroke="none" font-weight="bold" transform="translate(463 510)" fill="#000000">
            <tspan y="9" x="0" dx="0 ">AuxiliaryTrafficArea</tspan>
          </text>
          <path stroke="none" d="m40 539c0-5 0-5 5-5h94c5 0 5 0 5 5v20c0 5 0 5-5 5h-94c-5 0-5 0-5-5v-20" fill="#DFDFDF"/>
          <path stroke="none" d="m37 536c0-5 0-5 5-5h94c5 0 5 0 5 5v20c0 5 0 5-5 5h-94c-5 0-5 0-5-5v-20" fill="#fff"/>
          <path d="m37 536c0-5 0-5 5-5h94c5 0 5 0 5 5v20c0 5 0 5-5 5h-94c-5 0-5 0-5-5v-20c0-5 0-5 5-5h94c5 0 5 0 5 5v20c0 5 0 5-5 5h-94c-5 0-5 0-5-5v-20"/>
          <rect y="531" x="37" height="30" width="104"/>
          <text stroke="none" font-weight="bold" transform="translate(51 540)" fill="#000000">
            <tspan y="9" x="0" dx="0 ">Kunstwerkdeel</tspan>
          </text>
          <path stroke="none" d="m12 579c0-5 0-5 5-5h74c5 0 5 0 5 5v18c0 5 0 5-5 5h-74c-5 0-5 0-5-5v-18" fill="#DFDFDF"/>
          <path stroke="none" d="m9 576c0-5 0-5 5-5h74c5 0 5 0 5 5v18c0 5 0 5-5 5h-74c-5 0-5 0-5-5v-18" fill="#fff"/>
          <path d="m9 576c0-5 0-5 5-5h74c5 0 5 0 5 5v18c0 5 0 5-5 5h-74c-5 0-5 0-5-5v-18c0-5 0-5 5-5h74c5 0 5 0 5 5v18c0 5 0 5-5 5h-74c-5 0-5 0-5-5v-18"/>
          <rect y="571" x="9" height="28" width="84"/>
          <text stroke="none" font-weight="bold" transform="translate(26 580)" fill="#000000">
            <tspan y="9" x="0" dx="0 ">Scheiding</tspan>
          </text>
          <path stroke="none" d="m105 580c0-5 0-5 5-5h97c5 0 5 0 5 5v17c0 5 0 5-5 5h-97c-5 0-5 0-5-5v-17" fill="#DFDFDF"/>
          <path stroke="none" d="m102 577c0-5 0-5 5-5h97c5 0 5 0 5 5v17c0 5 0 5-5 5h-97c-5 0-5 0-5-5v-17" fill="#fff"/>
          <path d="m102 577c0-5 0-5 5-5h97c5 0 5 0 5 5v17c0 5 0 5-5 5h-97c-5 0-5 0-5-5v-17c0-5 0-5 5-5h97c5 0 5 0 5 5v17c0 5 0 5-5 5h-97c-5 0-5 0-5-5v-17"/>
          <rect y="572" x="102" height="27" width="107"/>
          <text stroke="none" font-weight="bold" transform="translate(110 581)" fill="#000000">
            <tspan y="9" x="0" dx="0 ">OverigBouwwerk</tspan>
          </text>
          <path stroke="none" d="m540 564c0-5 0-5 5-5h105c5 0 5 0 5 5v31c0 5 0 5-5 5h-105c-5 0-5 0-5-5v-31" fill="#DFDFDF"/>
          <path stroke="none" d="m537 561c0-5 0-5 5-5h105c5 0 5 0 5 5v31c0 5 0 5-5 5h-105c-5 0-5 0-5-5v-31" fill="#fff"/>
          <path d="m537 561c0-5 0-5 5-5h105c5 0 5 0 5 5v31c0 5 0 5-5 5h-105c-5 0-5 0-5-5v-31c0-5 0-5 5-5h105c5 0 5 0 5 5v31c0 5 0 5-5 5h-105c-5 0-5 0-5-5v-31"/>
          <rect y="556" x="537" height="41" width="115"/>
          <text stroke="none" font-weight="bold" transform="translate(543 565)" fill="#000000">
            <tspan y="9" x="0" dx="0 ">Plaatsbepalingspunt</tspan>
          </text>
          <path stroke="none" d="m289 549c0-5 0-5 5-5h131c5 0 5 0 5 5v26c0 5 0 5-5 5h-131c-5 0-5 0-5-5v-26" fill="#DFDFDF"/>
          <path stroke="none" d="m286 546c0-5 0-5 5-5h131c5 0 5 0 5 5v26c0 5 0 5-5 5h-131c-5 0-5 0-5-5v-26" fill="#fff"/>
          <path d="m286 546c0-5 0-5 5-5h131c5 0 5 0 5 5v26c0 5 0 5-5 5h-131c-5 0-5 0-5-5v-26c0-5 0-5 5-5h131c5 0 5 0 5 5v26c0 5 0 5-5 5h-131c-5 0-5 0-5-5v-26"/>
          <rect y="541" x="286" height="36" width="141"/>
          <text stroke="none" font-weight="bold" transform="translate(287 550)" fill="#000000">
            <tspan y="9" x="0" dx="0 ">BridgeConstructionElement</tspan>
          </text>
          <path stroke="none" d="m244 482c0-5 0-5 5-5h68c5 0 5 0 5 5v27c0 5 0 5-5 5h-68c-5 0-5 0-5-5v-27" fill="#DFDFDF"/>
          <path stroke="none" d="m241 479c0-5 0-5 5-5h68c5 0 5 0 5 5v27c0 5 0 5-5 5h-68c-5 0-5 0-5-5v-27" fill="#fff"/>
          <path d="m241 479c0-5 0-5 5-5h68c5 0 5 0 5 5v27c0 5 0 5-5 5h-68c-5 0-5 0-5-5v-27c0-5 0-5 5-5h68c5 0 5 0 5 5v27c0 5 0 5-5 5h-68c-5 0-5 0-5-5v-27"/>
          <rect y="474" x="241" height="37" width="78"/>
          <text stroke="none" font-weight="bold" transform="translate(253 483)" fill="#000000">
            <tspan y="9" x="0" dx="0 ">TunnelPart</tspan>
          </text>
          <path stroke="none" d="m338 115c0-5 0-5 5-5h79c5 0 5 0 5 5v40c0 5 0 5-5 5h-79c-5 0-5 0-5-5v-40" fill="#DFDFDF"/>
          <path stroke="none" d="m335 112c0-5 0-5 5-5h79c5 0 5 0 5 5v40c0 5 0 5-5 5h-79c-5 0-5 0-5-5v-40" fill="#FFFE99"/>
          <path d="m335 112c0-5 0-5 5-5h79c5 0 5 0 5 5v40c0 5 0 5-5 5h-79c-5 0-5 0-5-5v-40c0-5 0-5 5-5h79c5 0 5 0 5 5v40c0 5 0 5-5 5h-79c-5 0-5 0-5-5v-40"/>
          <rect y="107" x="335" height="50" width="89"/>
          <text font-style="italic" stroke="none" transform="translate(379 110)" fill="#000000">
            <tspan y="9" x="0" dx="0 ">_Feature</tspan>
          </text>
          <text font-style="italic" stroke="none" font-weight="bold" transform="translate(341 129)" fill="#000000">
            <tspan y="9" x="0" dx="0 ">CityGML Core::</tspan>
          </text>
          <text font-style="italic" stroke="none" font-weight="bold" transform="translate(350 140)" fill="#000000">
            <tspan y="9" x="0" dx="0 ">_CityObject</tspan>
          </text>
          <path stroke="none" d="m203 244c0-5 0-5 5-5h142c5 0 5 0 5 5v30c0 5 0 5-5 5h-142c-5 0-5 0-5-5v-30" fill="#DFDFDF"/>
          <path stroke="none" d="m200 241c0-5 0-5 5-5h142c5 0 5 0 5 5v30c0 5 0 5-5 5h-142c-5 0-5 0-5-5v-30" fill="#FFFE99"/>
          <path d="m200 241c0-5 0-5 5-5h142c5 0 5 0 5 5v30c0 5 0 5-5 5h-142c-5 0-5 0-5-5v-30c0-5 0-5 5-5h142c5 0 5 0 5 5v30c0 5 0 5-5 5h-142c-5 0-5 0-5-5v-30"/>
          <rect y="236" x="200" height="40" width="152"/>
          <text stroke="none" font-weight="bold" transform="translate(256 245)" fill="#000000">
            <tspan y="9" x="0" dx="0 ">Bridge::</tspan>
          </text>
          <text stroke="none" font-weight="bold" transform="translate(206 257)" fill="#000000">
            <tspan y="9" x="0" dx="0 ">BridgeConstructionElement</tspan>
          </text>
          <path stroke="none" d="m132 392c0-5 0-5 5-5h81c5 0 5 0 5 5v25c0 5 0 5-5 5h-81c-5 0-5 0-5-5v-25" fill="#DFDFDF"/>
          <path stroke="none" d="m129 389c0-5 0-5 5-5h81c5 0 5 0 5 5v25c0 5 0 5-5 5h-81c-5 0-5 0-5-5v-25" fill="#FFFE99"/>
          <path d="m129 389c0-5 0-5 5-5h81c5 0 5 0 5 5v25c0 5 0 5-5 5h-81c-5 0-5 0-5-5v-25c0-5 0-5 5-5h81c5 0 5 0 5 5v25c0 5 0 5-5 5h-81c-5 0-5 0-5-5v-25"/>
          <rect y="384" x="129" height="35" width="91"/>
          <text stroke="none" font-weight="bold" transform="translate(151 393)" fill="#000000">
            <tspan y="9" x="0" dx="0 ">Building::</tspan>
          </text>
          <text stroke="none" font-weight="bold" transform="translate(143 405)" fill="#000000">
            <tspan y="9" x="0" dx="0 ">BuildingPart</tspan>
          </text>
          <path stroke="none" d="m130 332c0-5 0-5 5-5h79c5 0 5 0 5 5v24c0 5 0 5-5 5h-79c-5 0-5 0-5-5v-24" fill="#DFDFDF"/>
          <path stroke="none" d="m127 329c0-5 0-5 5-5h79c5 0 5 0 5 5v24c0 5 0 5-5 5h-79c-5 0-5 0-5-5v-24" fill="#FFFE99"/>
          <path d="m127 329c0-5 0-5 5-5h79c5 0 5 0 5 5v24c0 5 0 5-5 5h-79c-5 0-5 0-5-5v-24c0-5 0-5 5-5h79c5 0 5 0 5 5v24c0 5 0 5-5 5h-79c-5 0-5 0-5-5v-24"/>
          <rect y="324" x="127" height="34" width="89"/>
          <text stroke="none" font-weight="bold" transform="translate(148 333)" fill="#000000">
            <tspan y="9" x="0" dx="0 ">Building::</tspan>
          </text>
          <text stroke="none" font-weight="bold" transform="translate(127 345)" fill="#000000">
            <tspan y="9" x="0" dx="0 ">_AbstractBuilding</tspan>
          </text>
          <path stroke="none" d="m34 231c0-5 0-5 5-5h79c5 0 5 0 5 5v31c0 5 0 5-5 5h-79c-5 0-5 0-5-5v-31" fill="#DFDFDF"/>
          <path stroke="none" d="m31 228c0-5 0-5 5-5h79c5 0 5 0 5 5v31c0 5 0 5-5 5h-79c-5 0-5 0-5-5v-31" fill="#FFFE99"/>
          <path d="m31 228c0-5 0-5 5-5h79c5 0 5 0 5 5v31c0 5 0 5-5 5h-79c-5 0-5 0-5-5v-31c0-5 0-5 5-5h79c5 0 5 0 5 5v31c0 5 0 5-5 5h-79c-5 0-5 0-5-5v-31"/>
          <rect y="223" x="31" height="41" width="89"/>
          <text stroke="none" font-weight="bold" transform="translate(38 232)" fill="#000000">
            <tspan y="9" x="0" dx="0 ">CityGML Core::</tspan>
          </text>
          <text stroke="none" font-weight="bold" transform="translate(63 244)" fill="#000000">
            <tspan y="9" x="0" dx="0 ">_Site</tspan>
          </text>
          <path stroke="none" d="m344 330c0-5 0-5 5-5h126c5 0 5 0 5 5v24c0 5 0 5-5 5h-126c-5 0-5 0-5-5v-24" fill="#DFDFDF"/>
          <path stroke="none" d="m341 327c0-5 0-5 5-5h126c5 0 5 0 5 5v24c0 5 0 5-5 5h-126c-5 0-5 0-5-5v-24" fill="#FFFE99"/>
          <path d="m341 327c0-5 0-5 5-5h126c5 0 5 0 5 5v24c0 5 0 5-5 5h-126c-5 0-5 0-5-5v-24c0-5 0-5 5-5h126c5 0 5 0 5 5v24c0 5 0 5-5 5h-126c-5 0-5 0-5-5v-24"/>
          <rect y="322" x="341" height="34" width="136"/>
          <text stroke="none" font-weight="bold" transform="translate(342 331)" fill="#000000">
            <tspan y="9" x="0" dx="0 ">Transportation::TrafficArea</tspan>
          </text>
          <path stroke="none" d="m364 232c0-5 0-5 5-5h115c5 0 5 0 5 5v31c0 5 0 5-5 5h-115c-5 0-5 0-5-5v-31" fill="#DFDFDF"/>
          <path stroke="none" d="m361 229c0-5 0-5 5-5h115c5 0 5 0 5 5v31c0 5 0 5-5 5h-115c-5 0-5 0-5-5v-31" fill="#FFFE99"/>
          <path d="m361 229c0-5 0-5 5-5h115c5 0 5 0 5 5v31c0 5 0 5-5 5h-115c-5 0-5 0-5-5v-31c0-5 0-5 5-5h115c5 0 5 0 5 5v31c0 5 0 5-5 5h-115c-5 0-5 0-5-5v-31"/>
          <rect y="224" x="361" height="41" width="125"/>
          <text stroke="none" font-weight="bold" transform="translate(384 233)" fill="#000000">
            <tspan y="9" x="0" dx="0 ">Transportation::</tspan>
          </text>
          <text stroke="none" font-weight="bold" transform="translate(367 245)" fill="#000000">
            <tspan y="9" x="0" dx="0 ">_TransportationObject</tspan>
          </text>
          <path stroke="none" d="m446 377c0-5 0-5 5-5h101c5 0 5 0 5 5v34c0 5 0 5-5 5h-101c-5 0-5 0-5-5v-34" fill="#DFDFDF"/>
          <path stroke="none" d="m443 374c0-5 0-5 5-5h101c5 0 5 0 5 5v34c0 5 0 5-5 5h-101c-5 0-5 0-5-5v-34" fill="#FFFE99"/>
          <path d="m443 374c0-5 0-5 5-5h101c5 0 5 0 5 5v34c0 5 0 5-5 5h-101c-5 0-5 0-5-5v-34c0-5 0-5 5-5h101c5 0 5 0 5 5v34c0 5 0 5-5 5h-101c-5 0-5 0-5-5v-34"/>
          <rect y="369" x="443" height="44" width="111"/>
          <text stroke="none" font-weight="bold" transform="translate(459 378)" fill="#000000">
            <tspan y="9" x="0" dx="0 ">Transportation::</tspan>
          </text>
          <text stroke="none" font-weight="bold" transform="translate(449 390)" fill="#000000">
            <tspan y="9" x="0" dx="0 ">AuxiliaryTrafficArea</tspan>
          </text>
          <path stroke="none" d="m567 409c0-5 0-5 5-5h112c5 0 5 0 5 5v17c0 5 0 5-5 5h-112c-5 0-5 0-5-5v-17" fill="#DFDFDF"/>
          <path stroke="none" d="m564 406c0-5 0-5 5-5h112c5 0 5 0 5 5v17c0 5 0 5-5 5h-112c-5 0-5 0-5-5v-17" fill="#FFFE99"/>
          <path d="m564 406c0-5 0-5 5-5h112c5 0 5 0 5 5v17c0 5 0 5-5 5h-112c-5 0-5 0-5-5v-17c0-5 0-5 5-5h112c5 0 5 0 5 5v17c0 5 0 5-5 5h-112c-5 0-5 0-5-5v-17"/>
          <rect y="401" x="564" height="27" width="122"/>
          <text stroke="none" font-weight="bold" transform="translate(565 410)" fill="#000000">
            <tspan y="9" x="0" dx="0 ">Transportation::Railway</tspan>
          </text>
          <path stroke="none" d="m487 332c0-5 0-5 5-5h120c5 0 5 0 5 5v28c0 5 0 5-5 5h-120c-5 0-5 0-5-5v-28" fill="#DFDFDF"/>
          <path stroke="none" d="m484 329c0-5 0-5 5-5h120c5 0 5 0 5 5v28c0 5 0 5-5 5h-120c-5 0-5 0-5-5v-28" fill="#FFFE99"/>
          <path d="m484 329c0-5 0-5 5-5h120c5 0 5 0 5 5v28c0 5 0 5-5 5h-120c-5 0-5 0-5-5v-28c0-5 0-5 5-5h120c5 0 5 0 5 5v28c0 5 0 5-5 5h-120c-5 0-5 0-5-5v-28"/>
          <rect y="324" x="484" height="38" width="130"/>
          <text stroke="none" font-weight="bold" transform="translate(510 333)" fill="#000000">
            <tspan y="9" x="0" dx="0 ">Transportation::</tspan>
          </text>
          <text stroke="none" font-weight="bold" transform="translate(490 345)" fill="#000000">
            <tspan y="9" x="0" dx="0 ">TransportationComplex</tspan>
          </text>
          <path stroke="none" d="m234 394c0-5 0-5 5-5h82c5 0 5 0 5 5v44c0 5 0 5-5 5h-82c-5 0-5 0-5-5v-44" fill="#DFDFDF"/>
          <path stroke="none" d="m231 391c0-5 0-5 5-5h82c5 0 5 0 5 5v44c0 5 0 5-5 5h-82c-5 0-5 0-5-5v-44" fill="#FFFE99"/>
          <path d="m231 391c0-5 0-5 5-5h82c5 0 5 0 5 5v44c0 5 0 5-5 5h-82c-5 0-5 0-5-5v-44c0-5 0-5 5-5h82c5 0 5 0 5 5v44c0 5 0 5-5 5h-82c-5 0-5 0-5-5v-44"/>
          <rect y="386" x="231" height="54" width="92"/>
          <text stroke="none" font-weight="bold" transform="translate(257 395)" fill="#000000">
            <tspan y="9" x="0" dx="0 ">Tunnel::</tspan>
          </text>
          <text stroke="none" font-weight="bold" transform="translate(250 407)" fill="#000000">
            <tspan y="9" x="0" dx="0 ">TunnelPart</tspan>
          </text>
          <path stroke="none" d="m228 332c0-5 0-5 5-5h80c5 0 5 0 5 5v25c0 5 0 5-5 5h-80c-5 0-5 0-5-5v-25" fill="#DFDFDF"/>
          <path stroke="none" d="m225 329c0-5 0-5 5-5h80c5 0 5 0 5 5v25c0 5 0 5-5 5h-80c-5 0-5 0-5-5v-25" fill="#FFFE99"/>
          <path d="m225 329c0-5 0-5 5-5h80c5 0 5 0 5 5v25c0 5 0 5-5 5h-80c-5 0-5 0-5-5v-25c0-5 0-5 5-5h80c5 0 5 0 5 5v25c0 5 0 5-5 5h-80c-5 0-5 0-5-5v-25"/>
          <rect y="324" x="225" height="35" width="90"/>
          <text stroke="none" font-weight="bold" transform="translate(250 333)" fill="#000000">
            <tspan y="9" x="0" dx="0 ">Tunnel::</tspan>
          </text>
          <text stroke="none" font-weight="bold" transform="translate(229 345)" fill="#000000">
            <tspan y="9" x="0" dx="0 ">_AbstractTunnel</tspan>
          </text>
          <path stroke="none" d="m171 540c0-5 0-5 5-5h94c5 0 5 0 5 5v20c0 5 0 5-5 5h-94c-5 0-5 0-5-5v-20" fill="#DFDFDF"/>
          <path stroke="none" d="m168 537c0-5 0-5 5-5h94c5 0 5 0 5 5v20c0 5 0 5-5 5h-94c-5 0-5 0-5-5v-20" fill="#FFAD5B"/>
          <path d="m168 537c0-5 0-5 5-5h94c5 0 5 0 5 5v20c0 5 0 5-5 5h-94c-5 0-5 0-5-5v-20c0-5 0-5 5-5h94c5 0 5 0 5 5v20c0 5 0 5-5 5h-94c-5 0-5 0-5-5v-20"/>
          <rect y="532" x="168" height="30" width="104"/>
          <text stroke="none" font-weight="bold" transform="translate(174 541)" fill="#000000">
            <tspan y="9" x="0" dx="0 ">OverigeScheiding</tspan>
          </text>
          <path stroke="none" d="m549 170c0-5 0-5 5-5h61c5 0 5 0 5 5v59c0 5 0 5-5 5h-61c-5 0-5 0-5-5v-59" fill="#DFDFDF"/>
          <path stroke="none" d="m546 167c0-5 0-5 5-5h61c5 0 5 0 5 5v59c0 5 0 5-5 5h-61c-5 0-5 0-5-5v-59" fill="#FFAD5B"/>
          <path d="m546 167c0-5 0-5 5-5h61c5 0 5 0 5 5v59c0 5 0 5-5 5h-61c-5 0-5 0-5-5v-59c0-5 0-5 5-5h61c5 0 5 0 5 5v59c0 5 0 5-5 5h-61c-5 0-5 0-5-5v-59"/>
          <rect y="162" x="546" height="69" width="71"/>
          <text stroke="none" font-weight="bold" transform="translate(555 171)" fill="#000000">
            <tspan y="9" x="0" dx="0 ">codelists::</tspan>
          </text>
          <text stroke="none" font-weight="bold" transform="translate(554 183)" fill="#000000">
            <tspan y="9" x="0" dx="0 ">StatusPlus</tspan>
          </text>
          <path d="m513 131h-88"/>
          <path d="m441 125v12l-16-6 16-6" fill="#FCF2E3"/>
          <path d="m549 324v-8h-125v-50"/>
          <path d="m430 282h-12l6-16 6 16" fill="#FCF2E3"/>
          <path d="m504 501v-87"/>
          <path d="m510 430h-12l6-16 6 16" fill="#FCF2E3"/>
          <path d="m480 369v-53"/>
          <path d="m76 223v-15h304v-50"/>
          <path d="m386 174h-12l6-16 6 16" fill="#FCF2E3"/>
          <path d="m171 324v-9"/>
          <path d="m76 315v-50"/>
          <path d="m82 281h-12l6-16 6 16" fill="#FCF2E3"/>
          <path d="m270 324v-9h-194"/>
          <path d="m424 224v-16h-44"/>
          <path d="m596 401v-38"/>
          <path d="m602 379h-12l6-16 6 16" fill="#FCF2E3"/>
          <path d="m223 532v-11h-154v-50"/>
          <path d="m75 487h-12l6-16 6 16" fill="#FCF2E3"/>
          <path d="m409 322v-6h15"/>
          <path d="m26 571v-50h43"/>
          <path d="m276 236v-28"/>
          <path d="m385 475v-118"/>
          <path d="m391 373h-12l6-16 6 16" fill="#FCF2E3"/>
          <path d="m174 384v-25"/>
          <path d="m180 375h-12l6-16 6 16" fill="#FCF2E3"/>
          <path d="m277 386v-26"/>
          <path d="m283 376h-12l6-16 6 16" fill="#FCF2E3"/>
          <path d="m178 475v-55"/>
          <path d="m184 436h-12l6-16 6 16" fill="#FCF2E3"/>
          <path d="m153 572v-51"/>
          <path d="m68 441v-126h8"/>
          <path d="m605 462v-33"/>
          <path d="m611 445h-12l6-16 6 16" fill="#FCF2E3"/>
          <path d="m332 541v-264"/>
          <path d="m338 293h-12l6-16 6 16" fill="#FCF2E3"/>
          <path d="m275 474l-1-33"/>
          <path d="m280 457h-12l6-16 6 16" fill="#FCF2E3"/>
          <path d="m89 531v-10"/>
          <g transform="matrix(1 0 0 -1 589 449)">
            <rect height="11" width="34" stroke="none" y="-11" x="0" fill="#fff"/>
          </g>
          <text stroke="none" transform="translate(589 449)" fill="#000000">
            <tspan y="9" x="0" dx="0 ">«ADE»</tspan>
          </text><g transform="matrix(1 0 0 -1 453 134)">
            <rect height="11" width="34" stroke="none" y="-11" x="0" fill="#fff"/>
          </g>
          <text stroke="none" transform="translate(453 134)" fill="#000000">
            <tspan y="9" x="0" dx="0 ">«ADE»</tspan>
          </text><g transform="matrix(1 0 0 -1 316 412)">
            <rect height="11" width="34" stroke="none" y="-11" x="0" fill="#fff"/>
          </g>
          <text stroke="none" transform="translate(316 412)" fill="#000000">
            <tspan y="9" x="0" dx="0 ">«ADE»</tspan>
          </text><g transform="matrix(1 0 0 -1 488 461)">
            <rect height="11" width="34" stroke="none" y="-11" x="0" fill="#fff"/>
          </g>
          <text stroke="none" transform="translate(488 461)" fill="#000000">
            <tspan y="9" x="0" dx="0 ">«ADE»</tspan>
          </text><g transform="matrix(1 0 0 -1 369 419)">
            <rect height="11" width="34" stroke="none" y="-11" x="0" fill="#fff"/>
          </g>
          <text stroke="none" transform="translate(369 419)" fill="#000000">
            <tspan y="9" x="0" dx="0 ">«ADE»</tspan>
          </text><g transform="matrix(1 0 0 -1 162 451)">
            <rect height="11" width="34" stroke="none" y="-11" x="0" fill="#fff"/>
          </g>
          <text stroke="none" transform="translate(162 451)" fill="#000000">
            <tspan y="9" x="0" dx="0 ">«ADE»</tspan>
          </text><g transform="matrix(1 0 0 -1 259 461)">
            <rect height="11" width="34" stroke="none" y="-11" x="0" fill="#fff"/>
          </g>
          <text stroke="none" transform="translate(259 461)" fill="#000000">
            <tspan y="9" x="0" dx="0 ">«ADE»</tspan>
          </text>
        </g>
      </g>
    </g>
  </g>
</svg>
