<?xml version="1.0" encoding="utf-8"?>
<!-- Generator: Adobe Illustrator 23.0.2, SVG Export Plug-In . SVG Version: 6.00 Build 0)  -->
<svg version="1.1" id="Layer_1" xmlns="http://www.w3.org/2000/svg" xmlns:xlink="http://www.w3.org/1999/xlink" x="0px" y="0px"
	 viewBox="0 0 391 74.05" style="enable-background:new 0 0 391 74.05;" xml:space="preserve">
<style type="text/css">
	.st0{fill:#00513B;}
	.st1{fill:#FFFFFF;}
	.st2{fill:#EF8000;}
</style>
<g>
	<g>
		<path class="st0" d="M115.95,27.32h-5.35l-1.64-5.86h-8.75l-1.64,5.86h-4.85l7.62-25.64h7.07L115.95,27.32z M104.74,5.82h-0.27
			l-3.32,11.88h6.8L104.74,5.82z"/>
		<path class="st0" d="M133.14,27.32H129v-1.25c-1.6,1.02-3.17,1.49-5.47,1.49c-3.95,0-6.14-2.15-6.14-5.39
			c0-3.56,2.74-6.06,8.79-6.06c0.98,0,1.84,0.04,2.66,0.04v-1.09c0-2.11-1.25-3.28-4.3-3.28c-1.88,0-3.44,0.31-5.51,1.17l-0.63-3.71
			c2.38-1.02,4.46-1.48,6.96-1.48c5.2,0,7.78,2.46,7.78,6.8V27.32z M124.82,24.03c1.52,0,2.7-0.31,4.03-1.02v-3.63
			c-0.74-0.04-1.76-0.08-2.54-0.08c-3.16,0-4.38,1.02-4.38,2.5C121.93,23.17,122.98,24.03,124.82,24.03z"/>
		<path class="st0" d="M149.67,15.47c0-2.54-1.25-3.63-3.56-3.63c-1.41,0-2.42,0.2-3.75,0.74v14.73h-4.42V8.09l4.3-0.19V9.3
			c1.68-1.06,3.17-1.56,5.12-1.56c4.22,0,6.72,2.42,6.72,6.84v12.74h-4.42V15.47z"/>
		<path class="st0" d="M181.63,27.32h-4.3v-1.33c-1.37,0.98-3.09,1.56-5,1.56c-4.81,0-8.05-3.2-8.05-9.46
			c0-6.53,4.22-10.36,10.12-10.36c1.02,0,1.95,0.08,2.81,0.31V0.23L181.63,0V27.32z M168.81,17.86c0,4.1,1.99,5.82,4.85,5.82
			c1.41,0,2.27-0.23,3.56-0.9V11.76c-0.94-0.16-1.76-0.23-2.77-0.23C171.04,11.53,168.81,13.87,168.81,17.86z"/>
		<path class="st0" d="M194.32,7.62c4.73,0,7.66,2.85,7.66,7.89c0,1.17-0.04,2.42-0.12,3.28h-11.96c0.47,3.44,2.46,5,5.94,5
			c2.19,0,3.71-0.31,5.63-0.94v3.67c-2.03,0.66-3.59,1.02-6.17,1.02c-5.9,0-9.69-3.13-9.69-9.85
			C185.61,11.1,189.52,7.62,194.32,7.62z M197.68,15.55c0-2.66-1.41-4.38-3.67-4.38c-2.07,0-3.63,1.52-4.03,4.38H197.68z"/>
		<path class="st0" d="M211.24,23.17c1.84,0.47,3.71,0.66,5.51,0.66c2.73,0,3.67-0.82,3.67-1.99c0-1.02-0.55-1.6-2.62-2.19
			l-2.42-0.7c-2.66-0.78-4.14-2.42-4.14-5.16c0-3.48,2.97-6.06,8.05-6.06c1.8,0,3.4,0.16,4.73,0.43l-0.27,3.71
			c-1.68-0.27-3.05-0.39-4.69-0.39c-2.38,0-3.44,0.82-3.44,1.84c0,0.94,0.39,1.49,2.27,1.99l2.31,0.62c3.32,0.9,4.65,2.62,4.65,5.2
			c0,3.99-3.09,6.41-8.05,6.41c-2.15,0-4.06-0.16-5.55-0.55V23.17z"/>
		<path class="st0" d="M233.04,27.32h-4.42V0.23L233.04,0V27.32z"/>
		<path class="st0" d="M252.46,27.32h-4.14v-1.25c-1.6,1.02-3.17,1.49-5.47,1.49c-3.95,0-6.14-2.15-6.14-5.39
			c0-3.56,2.74-6.06,8.79-6.06c0.98,0,1.84,0.04,2.66,0.04v-1.09c0-2.11-1.25-3.28-4.3-3.28c-1.87,0-3.44,0.31-5.51,1.17l-0.63-3.71
			c2.38-1.02,4.45-1.48,6.96-1.48c5.2,0,7.78,2.46,7.78,6.8V27.32z M244.14,24.03c1.52,0,2.7-0.31,4.02-1.02v-3.63
			c-0.74-0.04-1.76-0.08-2.54-0.08c-3.16,0-4.38,1.02-4.38,2.5C241.24,23.17,242.3,24.03,244.14,24.03z"/>
		<path class="st0" d="M262.97,23.56h4.61c4.14,0,5.9,1.64,5.9,4.77c0,3.67-3.05,6.64-10.08,6.64c-5.51,0-8.05-1.95-8.05-4.96
			c0-1.84,1.02-3.36,2.93-4.18v-0.12c-0.9-0.47-1.53-1.45-1.53-2.58c0-1.21,0.74-2.34,2.15-2.89v-0.12
			c-1.76-0.98-2.77-2.62-2.77-5.12c0-4.69,3.16-7.23,8.05-7.23c1.05,0,1.99,0.12,2.97,0.39h6.25v2.93h-2.97v0.12
			c0.82,0.62,1.53,1.95,1.53,3.63c0,4.26-2.89,6.49-8.21,6.49c-0.86,0-1.68-0.12-2.42-0.31c-0.51,0.27-0.82,0.74-0.82,1.21
			C260.51,23.1,261.17,23.56,262.97,23.56z M263.79,31.69c4.22,0,5.74-1.05,5.74-2.58c0-1.13-0.7-1.76-2.62-1.8l-6.41-0.2
			c-0.74,0.51-1.06,1.13-1.06,2.03C259.45,30.68,260.78,31.69,263.79,31.69z M267.85,14.5c0-2.34-1.29-3.6-3.75-3.6
			c-2.19,0-3.75,1.25-3.75,3.87c0,2.5,1.4,3.56,3.67,3.56C266.45,18.33,267.85,17.19,267.85,14.5z"/>
		<path class="st0" d="M306.11,15.51c0-2.54-1.25-3.67-3.52-3.67c-1.41,0-2.23,0.2-3.59,0.74v14.73h-4.42v-11.8
			c0-2.62-1.21-3.67-3.52-3.67c-1.45,0-2.23,0.2-3.59,0.74v14.73h-4.42V8.09l4.3-0.19V9.3c1.76-1.06,3.16-1.56,5.08-1.56
			c2.5,0,4.1,0.74,5.28,2.11c1.91-1.37,3.79-2.11,6.13-2.11c4.26,0,6.68,2.46,6.68,6.88v12.7h-4.41V15.51z"/>
		<path class="st0" d="M322.9,7.62c4.73,0,7.66,2.85,7.66,7.89c0,1.17-0.04,2.42-0.12,3.28h-11.96c0.47,3.44,2.46,5,5.94,5
			c2.19,0,3.71-0.31,5.63-0.94v3.67c-2.03,0.66-3.59,1.02-6.17,1.02c-5.9,0-9.69-3.13-9.69-9.85C314.18,11.1,318.09,7.62,322.9,7.62
			z M326.26,15.55c0-2.66-1.41-4.38-3.67-4.38c-2.07,0-3.64,1.52-4.03,4.38H326.26z"/>
		<path class="st0" d="M332.78,7.97h2.34V4.45l4.42-0.39v3.91h4.88v3.4h-4.88v9.14c0,2.23,1.17,3.21,2.89,3.21
			c0.94,0,1.48-0.08,2.5-0.31v3.67c-1.33,0.35-2.31,0.47-3.79,0.47c-3.59,0-6.02-2.03-6.02-6.45v-9.73h-2.34V7.97z"/>
		<path class="st0" d="M370.65,27.32h-4.3v-1.33c-1.37,0.98-3.09,1.56-5,1.56c-4.81,0-8.05-3.2-8.05-9.46
			c0-6.53,4.22-10.36,10.12-10.36c1.02,0,1.96,0.08,2.81,0.31V0.23L370.65,0V27.32z M357.83,17.86c0,4.1,1.99,5.82,4.85,5.82
			c1.41,0,2.27-0.23,3.56-0.9V11.76c-0.94-0.16-1.76-0.23-2.77-0.23C360.06,11.53,357.83,13.87,357.83,17.86z"/>
		<path class="st0" d="M383.34,7.62c4.73,0,7.66,2.85,7.66,7.89c0,1.17-0.04,2.42-0.12,3.28h-11.96c0.47,3.44,2.46,5,5.94,5
			c2.19,0,3.71-0.31,5.63-0.94v3.67c-2.03,0.66-3.59,1.02-6.17,1.02c-5.9,0-9.69-3.13-9.69-9.85
			C374.62,11.1,378.53,7.62,383.34,7.62z M386.7,15.55c0-2.66-1.41-4.38-3.67-4.38c-2.07,0-3.63,1.52-4.02,4.38H386.7z"/>
		<path class="st1" d="M107.43,40.4c6.53,0,11.72,4.14,11.72,12.94c0,8.72-5.59,13.4-12.27,13.4c-6.56,0-11.76-4.14-11.76-12.94
			C95.12,45.09,100.75,40.4,107.43,40.4z M107.16,62.56c3.52,0,7.07-2.5,7.07-8.79c0-6.68-3.17-9.22-7.07-9.22
			c-3.6,0-7.11,2.54-7.11,8.83C100.05,60.02,103.25,62.56,107.16,62.56z"/>
		<path class="st1" d="M146.47,54.59c0-2.54-1.25-3.67-3.52-3.67c-1.41,0-2.23,0.2-3.6,0.74v14.73h-4.42v-11.8
			c0-2.62-1.21-3.67-3.52-3.67c-1.45,0-2.23,0.2-3.6,0.74v14.73h-4.42V47.16l4.3-0.2v1.41c1.76-1.05,3.17-1.56,5.08-1.56
			c2.5,0,4.1,0.74,5.28,2.11c1.92-1.37,3.79-2.11,6.14-2.11c4.26,0,6.68,2.46,6.68,6.88v12.7h-4.42V54.59z"/>
		<path class="st1" d="M161.39,62.63H166c4.14,0,5.9,1.64,5.9,4.77c0,3.67-3.05,6.64-10.08,6.64c-5.51,0-8.05-1.95-8.05-4.96
			c0-1.84,1.02-3.36,2.93-4.18v-0.12c-0.9-0.47-1.52-1.45-1.52-2.58c0-1.21,0.74-2.34,2.15-2.89V59.2
			c-1.76-0.98-2.77-2.62-2.77-5.12c0-4.69,3.16-7.23,8.05-7.23c1.06,0,1.99,0.12,2.97,0.39h6.25v2.93h-2.97v0.12
			c0.82,0.63,1.52,1.96,1.52,3.64c0,4.26-2.89,6.49-8.21,6.49c-0.86,0-1.68-0.12-2.42-0.31c-0.51,0.27-0.82,0.74-0.82,1.21
			C158.93,62.17,159.59,62.63,161.39,62.63z M162.21,70.76c4.22,0,5.74-1.05,5.74-2.58c0-1.13-0.7-1.76-2.62-1.8l-6.41-0.2
			c-0.74,0.51-1.05,1.13-1.05,2.03C157.87,69.75,159.2,70.76,162.21,70.76z M166.27,53.57c0-2.34-1.29-3.59-3.75-3.59
			c-2.19,0-3.75,1.25-3.75,3.87c0,2.5,1.41,3.56,3.67,3.56C164.87,57.4,166.27,56.27,166.27,53.57z"/>
		<path class="st1" d="M182.53,46.69c4.73,0,7.66,2.85,7.66,7.89c0,1.17-0.04,2.42-0.12,3.28h-11.96c0.47,3.44,2.46,5,5.94,5
			c2.19,0,3.71-0.31,5.63-0.94v3.67c-2.03,0.66-3.6,1.02-6.17,1.02c-5.9,0-9.69-3.13-9.69-9.85
			C173.81,50.17,177.72,46.69,182.53,46.69z M185.89,54.62c0-2.66-1.41-4.38-3.67-4.38c-2.07,0-3.63,1.53-4.03,4.38H185.89z"/>
		<path class="st1" d="M191.51,47.04h5.08l4.26,15.59h0.27l4.1-15.59h4.61l-6.06,19.34h-6.1L191.51,47.04z"/>
		<path class="st1" d="M214.56,39.03c1.68,0,2.62,1.06,2.62,2.54c0,1.37-0.94,2.5-2.62,2.5c-1.68,0-2.58-1.02-2.58-2.5
			C211.98,40.2,212.88,39.03,214.56,39.03z M216.79,66.39h-4.42V47.16l4.42-0.2V66.39z"/>
		<path class="st1" d="M233.63,54.55c0-2.54-1.25-3.64-3.56-3.64c-1.41,0-2.42,0.2-3.75,0.74v14.73h-4.41V47.16l4.3-0.2v1.41
			c1.68-1.05,3.17-1.56,5.12-1.56c4.22,0,6.72,2.42,6.72,6.84v12.74h-4.42V54.55z"/>
		<path class="st1" d="M248.55,62.63h4.61c4.14,0,5.9,1.64,5.9,4.77c0,3.67-3.05,6.64-10.08,6.64c-5.51,0-8.05-1.95-8.05-4.96
			c0-1.84,1.02-3.36,2.93-4.18v-0.12c-0.9-0.47-1.53-1.45-1.53-2.58c0-1.21,0.74-2.34,2.15-2.89V59.2
			c-1.76-0.98-2.77-2.62-2.77-5.12c0-4.69,3.16-7.23,8.05-7.23c1.06,0,1.99,0.12,2.97,0.39h6.25v2.93h-2.97v0.12
			c0.82,0.63,1.52,1.96,1.52,3.64c0,4.26-2.89,6.49-8.21,6.49c-0.86,0-1.68-0.12-2.42-0.31c-0.51,0.27-0.82,0.74-0.82,1.21
			C246.09,62.17,246.76,62.63,248.55,62.63z M249.37,70.76c4.22,0,5.75-1.05,5.75-2.58c0-1.13-0.7-1.76-2.62-1.8l-6.41-0.2
			c-0.74,0.51-1.06,1.13-1.06,2.03C245.04,69.75,246.36,70.76,249.37,70.76z M253.44,53.57c0-2.34-1.29-3.59-3.75-3.59
			c-2.19,0-3.75,1.25-3.75,3.87c0,2.5,1.41,3.56,3.67,3.56C252.03,57.4,253.44,56.27,253.44,53.57z"/>
		<path class="st0" d="M260.94,62.25c1.84,0.47,3.71,0.66,5.51,0.66c2.73,0,3.67-0.82,3.67-1.99c0-1.02-0.55-1.6-2.62-2.19
			l-2.42-0.7c-2.66-0.78-4.14-2.42-4.14-5.16c0-3.48,2.97-6.06,8.05-6.06c1.8,0,3.4,0.16,4.73,0.43l-0.27,3.71
			c-1.68-0.27-3.05-0.39-4.69-0.39c-2.38,0-3.44,0.82-3.44,1.84c0,0.94,0.39,1.48,2.27,1.99l2.31,0.63c3.32,0.9,4.65,2.62,4.65,5.2
			c0,3.99-3.09,6.41-8.05,6.41c-2.15,0-4.07-0.16-5.55-0.55V62.25z"/>
		<path class="st0" d="M299,66.39h-6.1l-2.85-10.67h-0.12l-3.09,10.67h-5.9l-5.16-19.34h5.08l3.28,15.59h0.2l3.83-12l-0.98-3.59
			h4.45l4.38,15.59h0.2l3.36-15.59h4.61L299,66.39z"/>
		<path class="st0" d="M314.39,46.69c4.73,0,7.66,2.85,7.66,7.89c0,1.17-0.04,2.42-0.12,3.28h-11.96c0.47,3.44,2.46,5,5.94,5
			c2.19,0,3.71-0.31,5.63-0.94v3.67c-2.03,0.66-3.6,1.02-6.17,1.02c-5.9,0-9.69-3.13-9.69-9.85
			C305.67,50.17,309.58,46.69,314.39,46.69z M317.75,54.62c0-2.66-1.41-4.38-3.67-4.38c-2.07,0-3.63,1.53-4.02,4.38H317.75z"/>
		<path class="st0" d="M324.27,47.04h2.34v-3.52l4.42-0.39v3.91h4.88v3.4h-4.88v9.15c0,2.23,1.17,3.2,2.89,3.2
			c0.94,0,1.48-0.08,2.5-0.31v3.67c-1.33,0.35-2.31,0.47-3.79,0.47c-3.59,0-6.02-2.03-6.02-6.45v-9.73h-2.34V47.04z"/>
	</g>
	<path class="st1" d="M35.59,73.07c19.66,0,35.59-15.94,35.59-35.59c0-19.66-15.93-35.59-35.59-35.59C15.93,1.89,0,17.83,0,37.48
		C0,57.14,15.93,73.07,35.59,73.07L35.59,73.07z"/>
	<path class="st0" d="M35.59,61.84c13.45,0,24.35-10.9,24.35-24.35c0-13.45-10.9-24.35-24.35-24.35c-13.45,0-24.35,10.9-24.35,24.35
		C11.24,50.93,22.14,61.84,35.59,61.84L35.59,61.84z"/>
	<path class="st2" d="M35.59,49.97c6.9,0,12.49-5.59,12.49-12.49c0-6.9-5.59-12.49-12.49-12.49c-6.9,0-12.49,5.59-12.49,12.49
		C23.1,44.38,28.69,49.97,35.59,49.97L35.59,49.97z"/>
</g>
</svg>
